<svg height="588.723" viewBox="0 0 1457.021 588.723" width="1457.021" xmlns="http://www.w3.org/2000/svg"><g opacity=".09" transform="translate(53.835 212.2)"><g fill="none"><path d="m792.406 43.371a8.266 8.266 0 0 0 .151 1.552l-56.436 18.524-66.392-108.6a8.163 8.163 0 0 0 .7-.666l122.782 85.658a8.191 8.191 0 0 0 -.805 3.532z"/><path d="m660.617-44.19a8.026 8.026 0 0 0 .811.369l-31.528 135.429c-.22-.018-.441-.034-.666-.034a8.21 8.21 0 0 0 -6.246 2.88l-43.792-27.5z"/><path d="m794.563 37.831-122.748-85.64a8.172 8.172 0 0 0 .622-1.7l82.7 7.715 40.681 78.5a8.248 8.248 0 0 0 -1.255 1.125z"/><path d="m904.583 148.459a8.264 8.264 0 0 0 -1.478-.14 8.18 8.18 0 0 0 -4.186 1.154l-48.633-53.306 115.114-113.3a8.4 8.4 0 0 0 .96.631z"/><path d="m963.234-19.579a8.2 8.2 0 0 0 .472.721l-115.052 113.237-41.713-45.721a8.192 8.192 0 0 0 1.927-5.287 8.288 8.288 0 0 0 -.182-1.715z"/><path d="m636.581 96.119a8.248 8.248 0 0 0 -4.328-3.964l.583-2.507 30.95-132.921c.22.017.441.033.665.033a8.2 8.2 0 0 0 3.215-.652l66.093 108.114z"/><path d="m798.666 51.354-3.639 37.6-5.573 57.588a8.284 8.284 0 0 0 -1.735 1.312l-50.3-82.282 55.941-18.361a8.236 8.236 0 0 0 5.306 4.143z"/><path d="m786.181 149.973a8.105 8.105 0 0 0 -.483 1.157l-148.372-49.88a7.808 7.808 0 0 0 .009-2.832l97.72-32.075z"/><path d="m798.492 147.144 50.068-49.278 48.478 53.134a8.2 8.2 0 0 0 -1.9 3.5l-93.438-1.66a8.214 8.214 0 0 0 -3.208-5.696z"/><path d="m671.034-195.476-7.351 135.814a8.229 8.229 0 0 0 -7.462 8.192c0 .151.014.3.022.449l-192.2 39.443a8.178 8.178 0 0 0 -.866-1.726l204.264-183.896a8.208 8.208 0 0 0 3.593 1.724z"/><path d="m512.984 159.8a8.189 8.189 0 0 0 -1.02-1.078l65.794-89.808 43.936 27.586a8.159 8.159 0 0 0 -.223 6.03z"/><path d="m462.572-3.41 113.128 71.035-65.765 89.775a8.18 8.18 0 0 0 -3.419-.751 8.276 8.276 0 0 0 -1.61.16l-45.184-158.077a8.235 8.235 0 0 0 2.85-2.142z"/><path d="m672.659-51.92a8.225 8.225 0 0 0 -6.559-7.615l7.351-135.815a8.151 8.151 0 0 0 1.9-.412l78.466 151.414z"/><path d="m1241.534 128.994c-.136-.075-.277-.14-.417-.207l8.113-26.987 25.334-84.269a7.985 7.985 0 0 0 4.314-.525l21.05 35.284z"/><path d="m1230.592 131.847a8.193 8.193 0 0 0 -.873 6.84l-118.095 57.638q-.219-.316-.463-.611l85.792-96.174z"/><path d="m673.888 208.483-40.521-101.571a8.249 8.249 0 0 0 3.188-3.368l148.739 50c0 .048-.008.1-.008.143a8.224 8.224 0 0 0 .348 2.362z"/><path d="m796.97 161.154a8.234 8.234 0 0 0 4.624-5.9l93.3 1.662a8.181 8.181 0 0 0 2.229 5.271l-72.731 92.347z"/><path d="m796.266 145.94a8.062 8.062 0 0 0 -4.291-.331l5.42-56 3.68-38.031a8.179 8.179 0 0 0 4.054-1.316l41.8 45.814z"/><path d="m119.693-16.1a8.2 8.2 0 0 0 3.158.63 8.248 8.248 0 0 0 1.049-.074l55.362 195.744a8.269 8.269 0 0 0 -1.623 1.409l-115.408-102.13z"/><path d="m130.2-27.4a8.176 8.176 0 0 0 -.66-1.089l113.57-109.905a8.185 8.185 0 0 0 5 1.705 8.19 8.19 0 0 0 5.58-2.193l62.388 50.143z"/><path d="m4.945 17.742 93.727-62.142 17.379 16.059a8.191 8.191 0 0 0 -1.43 4.636 8.245 8.245 0 0 0 .163 1.636z"/><path d="m1387.214 211.984a8.215 8.215 0 0 0 1.491 2.575l-81.685 93.965a8.211 8.211 0 0 0 -6.062-1.133l-26.493-73.027z"/><path d="m893.231 171.043-59.452 101.69a7.954 7.954 0 0 0 -4.193-.508l-4.358-14.84z"/><path d="m127.853-30.226a8.184 8.184 0 0 0 -5-1.7 8.191 8.191 0 0 0 -5.156 1.82l-16.947-15.66 137.074-90.875z"/><path d="m1111.695 205.535 54.415 25.534-46.04 62.437a8.179 8.179 0 0 0 -3.379-1.187l-9.708-83.4a8.235 8.235 0 0 0 4.712-3.384z"/><path d="m1109.354 194.1a8.171 8.171 0 0 0 -3.3-1.253v-175.32a8.181 8.181 0 0 0 3.818-1.625l85.339 81.961z"/><path d="m1245.8 136.2a8.2 8.2 0 0 0 -2.34-5.741l57.807-75.932 88.483 148.313a8.253 8.253 0 0 0 -1.664 1.848l-142.628-66.158a8.233 8.233 0 0 0 .342-2.33z"/><path d="m338.835-70.45a8.183 8.183 0 0 0 -1.135 4.15c0 .114.012.224.017.336l-196.842 37.59 177.454-58.558z"/><path d="m1238.751 128.068a8.068 8.068 0 0 0 -6.587 1.935l-33.6-32.269 72.667-81.46a8.338 8.338 0 0 0 1.011.561z"/><path d="m656.727-48.65a8.242 8.242 0 0 0 1.939 3.031l-81.529 111.288-113.278-71.124a8.191 8.191 0 0 0 .695-3.3c0-.152-.015-.3-.023-.45z"/><path d="m1280.956 15.766a8.206 8.206 0 0 0 2.264-9.8l102.468-66.876c.074.085.151.168.228.25l-84.408 110.875z"/><path d="m629.229 108.036a8.239 8.239 0 0 0 1.891-.227l40.574 101.7-70.064 32.878a8.248 8.248 0 0 0 -3.821-3.094l30.744-131.293c.224.02.447.036.676.036z"/><path d="m358.371-96.034-10.116 21.843a8.241 8.241 0 0 0 -2.322-.338 8.187 8.187 0 0 0 -5.58 2.194l-19.285-15.5 34.474-11.376a8.251 8.251 0 0 0 2.829 3.177z"/><path d="m449.668-13.587-95.962-50.023a8.2 8.2 0 0 0 .458-2.688 8.221 8.221 0 0 0 -3.713-6.876l10.115-21.843a8.233 8.233 0 0 0 2.321.337 8.189 8.189 0 0 0 4.87-1.605l81.979 82.608z"/><path d="m739.6 360.738 52.986-198.873a7.522 7.522 0 0 0 2.057-.031l27.906 95.037-82.126 104.281a8.234 8.234 0 0 0 -.823-.414z"/><path d="m4.064 21.361c0-.241-.016-.477-.036-.712l111.58-40.438a8.257 8.257 0 0 0 2.011 2.442l-57.23 95.194-58.089-51.407a8.191 8.191 0 0 0 1.764-5.079z"/><path d="m98.918-47.462-44.3-40.932a8.192 8.192 0 0 0 1.432-4.636 8.332 8.332 0 0 0 -.05-.87l184.53-47.806c.04.093.089.181.132.272z"/><path d="m52.975-86.619 43.867 40.534-94.386 62.574a8.287 8.287 0 0 0 -1.843-1.82l44.967-99.785a8.2 8.2 0 0 0 2.24.317 8.191 8.191 0 0 0 5.155-1.82z"/><path d="m354.784-101.51-35.965 11.868-63.609-51.124c.043-.074.092-.143.133-.218l99.482 36.411a8.278 8.278 0 0 0 -.168 1.663 8.282 8.282 0 0 0 .127 1.4z"/><path d="m130.189-19.985a8.194 8.194 0 0 0 .893-3.715c0-.114-.013-.224-.017-.337l207.105-39.547a8.234 8.234 0 0 0 2.346 3.472l-83.552 129.92z"/><path d="m342.55-58.8c.145.065.293.125.442.182l-33.024 149.018-1.843 8.317c-.2-.015-.409-.031-.617-.031a8.2 8.2 0 0 0 -6.037 2.649l-42.53-30.124z"/><path d="m677.5-196.878a8.2 8.2 0 0 0 1.455-1.342l278.166 172.838-200.44-18.7z"/><path d="m176.3 183.66a8.171 8.171 0 0 0 -.482 1.364l-150.737-30.6a8.1 8.1 0 0 0 -3.236-7.771l39.118-65.065z"/><path d="m183.781 178.849a8.213 8.213 0 0 0 -2.292.33l-55.26-195.379a8.237 8.237 0 0 0 2.56-1.811l126.864 89.856-69.123 107.484a8.212 8.212 0 0 0 -2.749-.48z"/><path d="m1097.544 13.2-72.285 52.479-49.689-83.016a8.253 8.253 0 0 0 2.4-3.244l118.678 29.206c-.023.254-.039.51-.039.77a8.19 8.19 0 0 0 .935 3.805z"/><path d="m314.742 102.986 95.458-74.309 90.355 130.534a8.217 8.217 0 0 0 -1.583 2.377l-183.343-53.394a8.3 8.3 0 0 0 .109-1.28 8.193 8.193 0 0 0 -.996-3.928z"/><path d="m.536 28.11 58.584 51.847-39.411 65.554a8.2 8.2 0 0 0 -2.765-.486 8.4 8.4 0 0 0 -.957.06l-17.862-115.824a8.211 8.211 0 0 0 2.411-1.151z"/><path d="m310.485 99.247 1.965-8.87 32.905-148.477c.192.013.383.029.578.029a8.188 8.188 0 0 0 3.634-.854l59.257 85.606-95.537 74.372a8.239 8.239 0 0 0 -2.802-1.806z"/><path d="m188.673 180.472 68.957-107.227 42.477 30.085a8.15 8.15 0 0 0 -.025 7.115l-110.228 71.093a8.353 8.353 0 0 0 -1.181-1.066z"/><path d="m1213.1 246.543 58.959-11.7 26.619 73.376a8.221 8.221 0 0 0 -2.051 1.581l-84.383-59.178a8.184 8.184 0 0 0 .876-3.68c.005-.142-.008-.267-.02-.399z"/><path d="m835.867 273.955 64.176-109.769a8.207 8.207 0 0 0 9.494-2.507l198.951 134.891a8.2 8.2 0 0 0 -.913 2.846l.01-.134-268.67-19.531a8.211 8.211 0 0 0 -3.048-5.796z"/><path d="m1168.343 232.117 28.459 13.354a8.087 8.087 0 0 0 .581 4.822l-75.09 45.247c-.12-.159-.244-.314-.375-.463z"/><path d="m1208.02 239.326 29.368-94.9c.06 0 .118.009.178.009a8.275 8.275 0 0 0 1.639-.164l32.023 88.269-58.591 11.629a8.25 8.25 0 0 0 -4.617-4.843z"/><path d="m1241.48 143.445a8.261 8.261 0 0 0 2.959-2.719l142.625 66.16a8.248 8.248 0 0 0 -.339 2.327c0 .134.014.264.02.4l-113.116 22.452z"/><path d="m1391.824 201.6-88.98-149.149 84.971-111.613a8.172 8.172 0 0 0 2.8.981l3.036 259.274a8.234 8.234 0 0 0 -1.827.507z"/><path d="m1269.425 14.664-72.606 81.392-85.274-81.9a8.183 8.183 0 0 0 1.427-3.553h154.643a8.192 8.192 0 0 0 1.81 4.061z"/><path d="m962.342-21.828-154.5 61.217a8.2 8.2 0 0 0 -9.871-3.8l-39.971-77.116 204.22 19.051c.033.219.072.435.122.648z"/><path d="m1099.621 194.62a8.244 8.244 0 0 0 -2.455 3.406l-4.238-.948-181.6-40.621a8.172 8.172 0 0 0 -1.212-4.2l114.422-83.071z"/><path d="m1103.63 17.527v175.324a8.118 8.118 0 0 0 -1.933.526l-75.19-125.616 72.459-52.606a8.2 8.2 0 0 0 4.664 2.372z"/><path d="m908.562 150.4a8.243 8.243 0 0 0 -1.686-1.161l61.753-164.892a8.278 8.278 0 0 0 1.721.183 8.215 8.215 0 0 0 3.143-.624l49.8 83.2z"/><path d="m1233.709 143.473a8.2 8.2 0 0 0 1.273.541l-29.315 94.733c-.255-.024-.512-.039-.773-.039a8.224 8.224 0 0 0 -7.309 4.457l-27.777-13.034z"/><path d="m351.557-60.3a8.21 8.21 0 0 0 1.029-1.166l95.964 50.021a8.191 8.191 0 0 0 -.458 2.688 8.187 8.187 0 0 0 1.067 4.044l-38.423 29.913z"/><path d="m603.005 246.939a8.218 8.218 0 0 0 -.348-2.362l69.935-32.813 59.608 149.421a8.2 8.2 0 0 0 -1.251.894l-129.211-110.766a8.184 8.184 0 0 0 1.267-4.374z"/><path d="m514.746 164.88a8.194 8.194 0 0 0 -.563-2.976l108.417-57.232a8.244 8.244 0 0 0 3.593 2.779l-30.741 131.291c-.224-.018-.448-.034-.677-.034a8.193 8.193 0 0 0 -5.135 1.8l-76.34-70.972a8.185 8.185 0 0 0 1.446-4.656z"/><path d="m786.662 158.243a8.257 8.257 0 0 0 3.59 3l-52.987 198.874a8.312 8.312 0 0 0 -.926-.056 8.222 8.222 0 0 0 -1.889.227l-59.664-149.554z"/><path d="m450.648-2.806a8.193 8.193 0 0 0 5.675 2.279 8.246 8.246 0 0 0 1.072-.073l45.227 158.232c-.052.029-.1.061-.154.09l-90.353-130.533z"/><path d="m911 158.863 140.3 31.384 45.336 10.141c-.014.2-.03.394-.03.6a8.225 8.225 0 0 0 7.969 8.217l9.685 83.2a8.205 8.205 0 0 0 -4.318 2.239l-199.189-135.064c.093-.235.176-.473.247-.717z"/><path d="m1112.723 203.345a8.227 8.227 0 0 0 -.027-4.823l118.349-57.311a8.03 8.03 0 0 0 .716.826l-64.187 87.046z"/><path d="m747.013 356.7 76.378-96.977 3.872 13.187a8.218 8.218 0 0 0 -3.327 12.126z"/></g><path d="m-4.272 29.586 17.91 116.135a8.228 8.228 0 1 0 10.748 11.033l151.182 30.689a8.225 8.225 0 1 0 15.637-3.9l110.225-71.1a8.21 8.21 0 0 0 13.47-1.943l183.44 53.42a8.222 8.222 0 0 0 13.3 7.382l76.34 70.977a8.225 8.225 0 0 0 12.174 10.868l129.223 110.769a8.228 8.228 0 1 0 13.742-.286l82.468-76.83a8.22 8.22 0 0 0 13.156-4.635l268.667 19.535.087-1.207a8.231 8.231 0 1 0 15.954-2.822l75.236-45.334a8.209 8.209 0 0 0 12.172.266l84.383 59.178a8.229 8.229 0 1 0 13.606-1.665l81.684-93.966a8.225 8.225 0 1 0 5.539-15.079l-3.036-259.221a8.227 8.227 0 0 0 7.1-8.144 8.231 8.231 0 0 0 -8.231-8.231 8.231 8.231 0 0 0 -8.231 8.231 8.2 8.2 0 0 0 .716 3.347l-102.489 66.885a8.215 8.215 0 0 0 -14.281 4.247h-154.647a8.223 8.223 0 0 0 -15.746-1.91l-118.684-29.206c.024-.253.039-.51.039-.769a8.231 8.231 0 0 0 -8.231-8.231 8.226 8.226 0 0 0 -8.11 6.88l-282.005-175.222a8.208 8.208 0 0 0 .678-3.268 8.231 8.231 0 0 0 -8.231-8.231 8.231 8.231 0 0 0 -8.231 8.231 8.188 8.188 0 0 0 1.373 4.547l-204.26 183.894a8.2 8.2 0 0 0 -5.241-1.885 8.178 8.178 0 0 0 -4.869 1.606l-81.979-82.612a8.183 8.183 0 0 0 1.643-4.919 8.231 8.231 0 0 0 -8.231-8.231 8.229 8.229 0 0 0 -7.23 4.3l-99.482-36.412a8.276 8.276 0 0 0 .168-1.662 8.231 8.231 0 0 0 -8.23-8.231 8.231 8.231 0 0 0 -8.231 8.231 8.333 8.333 0 0 0 .047.87l-184.529 47.802a8.233 8.233 0 0 0 -7.579-5.018 8.231 8.231 0 0 0 -8.231 8.231 8.219 8.219 0 0 0 3.785 6.92l-44.918 99.675a8.2 8.2 0 0 0 -2.624-.435 8.231 8.231 0 0 0 -8.233 8.231 8.228 8.228 0 0 0 8.128 8.225zm833.858 242.639-4.358-14.84 68-86.342-59.452 101.69a7.954 7.954 0 0 0 -4.193-.508zm287.105 20.094-9.708-83.4a8.235 8.235 0 0 0 4.712-3.387l54.415 25.534-46.04 62.437a8.179 8.179 0 0 0 -3.379-1.184zm184.267 15.072-26.493-73.027 112.749-22.38a8.215 8.215 0 0 0 1.491 2.575l-81.685 93.965a8.211 8.211 0 0 0 -6.062-1.133zm-984.877-396.13-185.881 61.339a8.176 8.176 0 0 0 -.66-1.089l113.57-109.905a8.185 8.185 0 0 0 5 1.705 8.19 8.19 0 0 0 5.58-2.193zm-138.442 270.352-115.408-102.134 57.462-95.579a8.2 8.2 0 0 0 3.158.63 8.248 8.248 0 0 0 1.049-.074l55.362 195.744a8.269 8.269 0 0 0 -1.623 1.413zm-63.018-205.313a8.245 8.245 0 0 0 .163 1.636l-109.839 39.806 93.727-62.142 17.379 16.059a8.191 8.191 0 0 0 -1.43 4.641zm-13.873-22.071 137.074-90.875-109.969 106.42a8.184 8.184 0 0 0 -5-1.7 8.191 8.191 0 0 0 -5.156 1.82zm217.581-41.161 20.506 16.482a8.183 8.183 0 0 0 -1.135 4.15c0 .114.012.224.017.336l-196.842 37.59zm2.739-.9 34.474-11.376a8.251 8.251 0 0 0 2.829 3.178l-10.116 21.839a8.241 8.241 0 0 0 -2.322-.338 8.187 8.187 0 0 0 -5.58 2.194zm46.689-8.449 81.979 82.608-.068.09-95.962-50.027a8.2 8.2 0 0 0 .458-2.688 8.221 8.221 0 0 0 -3.713-6.876l10.115-21.843a8.233 8.233 0 0 0 2.321.337 8.189 8.189 0 0 0 4.87-1.605zm230.052 335.574 30.744-131.293c.224.018.448.034.676.034a8.239 8.239 0 0 0 1.891-.227l40.574 101.7-70.064 32.88a8.248 8.248 0 0 0 -3.821-3.094zm790.274-34.6-142.625-66.163a8.2 8.2 0 0 0 -2-8.068l57.807-75.932 88.483 148.313a8.253 8.253 0 0 0 -1.665 1.848zm-2.167-265.353-84.408 110.875-20.552-34.449a8.206 8.206 0 0 0 2.264-9.8l102.468-66.876c.074.085.151.168.228.25zm-114.684 76.934a8.338 8.338 0 0 0 1.011.561l-33.492 111.233a8.068 8.068 0 0 0 -6.587 1.935l-33.6-32.269zm-76.025 81.589-85.853 96.237a8.171 8.171 0 0 0 -3.3-1.253v-175.32a8.181 8.181 0 0 0 3.818-1.625zm-730.653-106.62c0-.152-.015-.3-.023-.45l192.2-39.443a8.242 8.242 0 0 0 1.939 3.031l-81.533 111.288-113.278-71.124a8.191 8.191 0 0 0 .695-3.302zm337.146 161.597a8.214 8.214 0 0 0 -3.212-5.7l50.072-49.274 48.478 53.134a8.2 8.2 0 0 0 -1.9 3.5zm-134.034-196.732 66.093 108.114-97.178 31.9a8.248 8.248 0 0 0 -4.328-3.964l.583-2.507 30.95-132.921c.22.017.441.033.665.033a8.2 8.2 0 0 0 3.215-.655zm67.389 110.235 51.126 83.63a8.105 8.105 0 0 0 -.483 1.157l-148.372-49.88a7.808 7.808 0 0 0 .009-2.832zm2.362-.775 55.941-18.361a8.236 8.236 0 0 0 5.308 4.147l-3.639 37.6-5.573 57.588a8.284 8.284 0 0 0 -1.735 1.312zm109.51 30.509-50.661 49.863a8.062 8.062 0 0 0 -4.291-.331l5.42-56 3.68-38.031a8.179 8.179 0 0 0 4.054-1.316zm-223.944-1.623-43.792-27.5 81.426-111.144a8.026 8.026 0 0 0 .811.369l-31.528 135.429c-.22-.018-.441-.034-.666-.034a8.21 8.21 0 0 0 -6.251 2.88zm47.446-140.278 122.782 85.663a8.121 8.121 0 0 0 -.654 5.084l-56.436 18.524-66.392-108.6a8.163 8.163 0 0 0 .7-.671zm138.439 89.195a8.288 8.288 0 0 0 -.182-1.715l154.548-61.235a8.2 8.2 0 0 0 .472.721l-115.052 113.237-41.713-45.721a8.192 8.192 0 0 0 1.927-5.287zm156.532-60.504a8.4 8.4 0 0 0 .96.631l-61.78 164.961a8.264 8.264 0 0 0 -1.478-.14 8.18 8.18 0 0 0 -4.186 1.154l-48.63-53.306zm313.475 34.139 21.05 35.284-58.394 76.7c-.136-.075-.277-.14-.417-.207l8.113-26.987 25.334-84.269a7.985 7.985 0 0 0 4.314-.525zm-81.922 82.534 33.639 32.307a8.193 8.193 0 0 0 -.873 6.84l-118.095 57.638q-.219-.316-.463-.611zm-299.83 62.651-72.731 92.347-27.422-93.384a8.234 8.234 0 0 0 4.624-5.9l93.3 1.662a8.181 8.181 0 0 0 2.229 5.275zm-74.569 94.68-82.131 104.281a8.234 8.234 0 0 0 -.818-.414l52.986-198.873a7.522 7.522 0 0 0 2.057-.031zm-37.268-103.181a8.224 8.224 0 0 0 .348 2.362l-111.746 52.431-40.521-101.571a8.249 8.249 0 0 0 3.188-3.368l148.739 50c-.001.056-.008.098-.008.146zm-164.286-53.885a8.21 8.21 0 0 0 .472 2.727l-108.488 57.268a8.189 8.189 0 0 0 -1.02-1.078l65.794-89.808 43.936 27.586a8.2 8.2 0 0 0 -.694 3.305zm-116.093 57-45.185-158.073a8.235 8.235 0 0 0 2.85-2.142l113.128 71.035-65.765 89.775a8.18 8.18 0 0 0 -3.419-.751 8.276 8.276 0 0 0 -1.61.16zm-41.726-170.105 204.26-183.9a8.208 8.208 0 0 0 3.593 1.719l-7.351 135.819a8.229 8.229 0 0 0 -7.462 8.192c0 .151.014.3.022.449l-192.2 39.443a8.178 8.178 0 0 0 -.862-1.722zm212.17-182.458 78.466 151.41-81.158-7.572a8.225 8.225 0 0 0 -6.559-7.615l7.351-135.815a8.151 8.151 0 0 0 1.9-.412zm79.789 153.963 40.681 78.5a8.248 8.248 0 0 0 -1.258 1.125l-122.748-85.639a8.172 8.172 0 0 0 .622-1.7zm2.864.268 204.216 19.051c.033.219.072.435.122.648l-154.5 61.217a8.2 8.2 0 0 0 -9.871-3.8zm215.489 25.433 49.8 83.2-114.731 83.294a8.243 8.243 0 0 0 -1.686-1.161l61.753-164.892a8.278 8.278 0 0 0 1.721.183 8.215 8.215 0 0 0 3.143-.624zm51.048 85.282 75.08 125.432a8.244 8.244 0 0 0 -2.455 3.406l-4.238-.948-181.6-40.621a8.172 8.172 0 0 0 -1.212-4.2zm1.966-1.427 72.459-52.606a8.2 8.2 0 0 0 4.664 2.372v175.324a8.118 8.118 0 0 0 -1.933.526zm86.465-57.161h154.643a8.192 8.192 0 0 0 1.81 4.059l-72.606 81.392-85.274-81.9a8.183 8.183 0 0 0 1.427-3.551zm277.643-68.783 3.036 259.274a8.234 8.234 0 0 0 -1.827.507l-88.98-149.149 84.971-111.613a8.172 8.172 0 0 0 2.8.986zm-116.986 290.24-32.149-88.617a8.261 8.261 0 0 0 2.959-2.719l142.625 66.16a8.248 8.248 0 0 0 -.339 2.327c0 .134.014.264.02.4zm-2.4.477-58.591 11.629a8.25 8.25 0 0 0 -4.617-4.842l29.368-94.9c.06 0 .118.009.178.009a8.275 8.275 0 0 0 1.639-.164zm-73.643 10.626-27.777-13.034 63.9-86.658a8.2 8.2 0 0 0 1.273.541l-29.315 94.733c-.255-.024-.512-.039-.773-.039a8.224 8.224 0 0 0 -7.309 4.462zm-30.011-14.082-54.851-25.738a8.227 8.227 0 0 0 -.027-4.823l118.349-57.311a8.03 8.03 0 0 0 .716.826zm-256.821-69.5c.093-.235.176-.473.248-.717l140.3 31.384 45.336 10.141c-.014.2-.03.394-.03.6a8.225 8.225 0 0 0 7.969 8.217l9.685 83.2a8.205 8.205 0 0 0 -4.318 2.239zm-88.269 120.791a8.181 8.181 0 0 0 1.451 4.662l-76.923 71.669 76.378-96.977 3.872 13.187a8.224 8.224 0 0 0 -4.778 7.459zm-88.035 79.919-59.664-149.554 111.876-52.491a8.257 8.257 0 0 0 3.59 3l-52.987 198.874a8.312 8.312 0 0 0 -.926-.056 8.222 8.222 0 0 0 -1.889.227zm-3.5 1.791-129.212-110.766a8.185 8.185 0 0 0 .919-6.736l69.935-32.813 59.608 149.421a8.2 8.2 0 0 0 -1.249.894zm-141.31-121.567-76.34-70.976a8.192 8.192 0 0 0 .883-7.632l108.417-57.232a8.244 8.244 0 0 0 3.593 2.779l-30.741 131.291c-.224-.018-.448-.034-.677-.034a8.193 8.193 0 0 0 -5.135 1.804zm-177.525-213.323 38.533-29.995a8.193 8.193 0 0 0 5.675 2.279 8.246 8.246 0 0 0 1.072-.073l45.227 158.232c-.052.029-.1.061-.154.09zm-1.379-1.989-59.179-85.5a8.21 8.21 0 0 0 1.029-1.166l95.964 50.021a8.191 8.191 0 0 0 -.458 2.688 8.187 8.187 0 0 0 1.067 4.044zm-1.912 1.489-95.537 74.372a8.239 8.239 0 0 0 -2.8-1.81l1.965-8.87 32.903-148.481c.192.013.383.029.578.029a8.188 8.188 0 0 0 3.634-.854zm-107.353 74.643-42.53-30.124 83.609-130.008c.145.065.293.125.442.182l-33.024 149.018-1.843 8.317c-.2-.015-.409-.031-.617-.031a8.2 8.2 0 0 0 -6.037 2.646zm-44.507-31.524-126.775-89.793a8.194 8.194 0 0 0 .893-3.715c0-.114-.013-.224-.017-.337l207.105-39.547a8.234 8.234 0 0 0 2.346 3.472zm-1.311 2.037-69.123 107.484a8.118 8.118 0 0 0 -5.041-.15l-55.26-195.379a8.237 8.237 0 0 0 2.56-1.811zm-233.807 74.81 39.117-65.067 115.337 102.072a8.171 8.171 0 0 0 -.482 1.364l-150.737-30.6a8.1 8.1 0 0 0 -3.236-7.771zm38.543-68.808-58.089-51.407a8.191 8.191 0 0 0 1.763-5.079c0-.241-.016-.477-.036-.712l111.58-40.438a8.257 8.257 0 0 0 2.011 2.442zm-14.809-162.963a8.2 8.2 0 0 0 2.24.317 8.191 8.191 0 0 0 5.155-1.82l43.867 40.534-94.386 62.574a8.287 8.287 0 0 0 -1.843-1.82zm194.953-56.59c.04.093.089.181.132.272l-141.747 93.972-44.3-40.932a8.192 8.192 0 0 0 1.432-4.636 8.332 8.332 0 0 0 -.05-.87zm114.292 37.133a8.278 8.278 0 0 0 -.168 1.663 8.282 8.282 0 0 0 .127 1.4l-35.965 11.868-63.609-51.124c.043-.074.092-.143.133-.218zm602.3 79.191-200.44-18.7-79.185-152.796a8.2 8.2 0 0 0 1.455-1.342zm139.523 34.007c-.023.254-.039.51-.039.77a8.19 8.19 0 0 0 .935 3.8l-72.285 52.479-49.689-83.011a8.253 8.253 0 0 0 2.4-3.244zm115.6 241.994a8.184 8.184 0 0 0 .876-3.68c0-.134-.013-.264-.02-.4l58.959-11.7 26.619 73.376a8.221 8.221 0 0 0 -2.051 1.581zm-89.956 44.921c-.12-.159-.244-.314-.375-.463l46.425-62.96 28.459 13.354a8.087 8.087 0 0 0 .581 4.822zm-283.377-15.789a8.211 8.211 0 0 0 -3.048-5.8l64.176-109.769a8.207 8.207 0 0 0 9.494-2.507l198.951 134.895a8.2 8.2 0 0 0 -.913 2.846l.01-.134zm-523.286-171.557a8.3 8.3 0 0 0 .109-1.28 8.193 8.193 0 0 0 -1-3.928l95.462-74.309 90.355 130.534a8.217 8.217 0 0 0 -1.583 2.377zm-125.775 73.344a8.353 8.353 0 0 0 -1.181-1.066l68.957-107.227 42.477 30.085a8.15 8.15 0 0 0 -.025 7.115zm-173.867-36.453-17.862-115.824a8.211 8.211 0 0 0 2.411-1.151l58.584 51.847-39.411 65.554a8.2 8.2 0 0 0 -2.765-.486 8.4 8.4 0 0 0 -.957.06z"/></g><g opacity=".053" transform="translate(95.835 54.2)"><g fill="none"><path d="m351.889 152.875a7.964 7.964 0 0 1 -.145 1.487l54.085 17.752 63.625-104.078a7.948 7.948 0 0 1 -.671-.64l-117.666 82.094a7.844 7.844 0 0 1 .772 3.385z" transform="translate(137.605 37.436)"/><path d="m448.456 68.594a7.693 7.693 0 0 1 -.776.353l30.22 129.786c.211-.017.422-.033.638-.033a7.868 7.868 0 0 1 5.986 2.761l41.966-26.351z" transform="translate(167.335 37.805)"/><path d="m350.41 148.4 117.634-82.07a7.811 7.811 0 0 1 -.6-1.631l-79.254 7.391-38.99 75.229a7.878 7.878 0 0 1 1.21 1.081z" transform="translate(137.016 36.605)"/><path d="m283.448 247.111a7.769 7.769 0 0 1 5.428.972l46.606-51.083-110.321-108.581a7.965 7.965 0 0 1 -.919.606z" transform="translate(98.544 43.909)"/><path d="m226.642 86.627a7.856 7.856 0 0 1 -.453.692l110.258 108.517 39.974-43.815a7.87 7.87 0 0 1 -1.671-6.709z" transform="translate(99.143 43.357)"/><path d="m487.809 202.988a7.9 7.9 0 0 1 4.147-3.8l-.558-2.4-29.661-127.388c-.211.017-.422.033-.638.033a7.839 7.839 0 0 1 -3.08-.625l-63.339 103.613z" transform="translate(151.017 37.872)"/><path d="m347.12 139.537 3.487 36.029 5.341 55.188a7.9 7.9 0 0 1 1.662 1.258l48.206-78.854-53.608-17.595a7.894 7.894 0 0 1 -5.088 3.974z" transform="translate(136.375 58.424)"/><path d="m356.269 229.73a7.865 7.865 0 0 1 .462 1.109l142.19-47.8a7.918 7.918 0 0 1 -.129-1.385 7.8 7.8 0 0 1 .122-1.329l-93.649-30.738z" transform="translate(139.192 62.741)"/><path d="m369.479 219.907-47.979-47.223-46.461 50.916a7.854 7.854 0 0 1 1.818 3.357l89.544-1.6a7.871 7.871 0 0 1 3.078-5.45z" transform="translate(114.183 69.852)"/><path d="m440.641-41.872 7.044 130.156a7.885 7.885 0 0 1 7.151 7.85c0 .145-.014.288-.022.432l184.186 37.798a7.9 7.9 0 0 1 .829-1.654l-195.746-176.229a7.845 7.845 0 0 1 -3.442 1.647z" transform="translate(165.168 3.288)"/><path d="m580.974 238.569a7.946 7.946 0 0 1 .977-1.035l-63.051-86.064-42.1 26.437a7.822 7.822 0 0 1 .213 5.779z" transform="translate(176.298 63.321)"/><path d="m618.911 98.475-108.418 68.075 63.028 86.033a7.845 7.845 0 0 1 3.277-.719 7.978 7.978 0 0 1 1.542.153l43.3-151.49a7.9 7.9 0 0 1 -2.729-2.052z" transform="translate(186.673 47.005)"/><path d="m457.758 95.38a7.884 7.884 0 0 1 6.286-7.3l-7.044-130.154a7.7 7.7 0 0 1 -1.821-.395l-75.2 145.1z" transform="translate(146.492 3.612)"/><path d="m35.787 220.756c.129-.072.265-.133.4-.2l-7.775-25.863-24.278-80.755a7.91 7.91 0 0 1 -1.134.091 7.839 7.839 0 0 1 -3-.6l-20.173 33.814z" transform="translate(23.294 51.61)"/><path d="m30.631 204.871a7.826 7.826 0 0 1 1.2 4.175 7.914 7.914 0 0 1 -.366 2.38l113.173 55.235c.139-.2.288-.4.443-.586l-82.212-92.165z" transform="translate(38.936 70.229)"/><path d="m463.758 277.41 38.832-97.339a7.909 7.909 0 0 1 -3.054-3.228l-142.541 47.92c0 .046.008.092.008.137a7.877 7.877 0 0 1 -.333 2.263z" transform="translate(139.315 71.133)"/><path d="m370.957 220.387a7.892 7.892 0 0 1 -4.432-5.65l-89.412 1.593a7.846 7.846 0 0 1 -2.136 5.051l69.7 88.5z" transform="translate(114.164 82.799)"/><path d="m360.308 229.493a7.841 7.841 0 0 1 2.634-.46 7.984 7.984 0 0 1 1.478.143l-5.195-53.665-3.525-36.446a7.848 7.848 0 0 1 -3.884-1.262l-40.056 43.905z" transform="translate(125.487 59.113)"/><path d="m858.067 89.176a7.85 7.85 0 0 1 -3.026.6 7.984 7.984 0 0 1 -1.006-.071l-53.055 187.595a7.919 7.919 0 0 1 1.556 1.351l110.6-97.879z" transform="translate(276.107 44.142)"/><path d="m878.867 106.047a7.974 7.974 0 0 1 .633-1.047l-108.841-105.323a7.85 7.85 0 0 1 -4.795 1.634 7.846 7.846 0 0 1 -5.348-2.1l-59.788 48.052z" transform="translate(245.242 16.443)"/><path d="m953.773 127.992-89.821-59.548-16.652 15.39a7.843 7.843 0 0 1 1.371 4.442 7.952 7.952 0 0 1 -.157 1.569z" transform="translate(290.367 37.759)"/><path d="m-83.794 256.3a7.9 7.9 0 0 1 -1.43 2.468l78.282 90.05a7.839 7.839 0 0 1 4.242-1.242 7.967 7.967 0 0 1 1.571.157l25.39-69.984z" transform="translate(3.267 95.596)"/><path d="m277.829 226.3 56.971 97.455a7.872 7.872 0 0 1 2.935-.57 7.769 7.769 0 0 1 1.083.084l4.182-14.222z" transform="translate(115.042 86.36)"/><path d="m863.458 102.833a7.857 7.857 0 0 1 9.734.11l16.241-15.008-131.362-87.087z" transform="translate(262.896 16.948)"/><path d="m130.028 251.577-52.148 24.469 44.12 59.835a7.83 7.83 0 0 1 3.238-1.137l9.3-79.923a7.886 7.886 0 0 1 -4.51-3.244z" transform="translate(53.483 94.141)"/><path d="m138.834 283.4a7.836 7.836 0 0 1 3.166-1.2v-168.017a7.821 7.821 0 0 1 -3.658-1.558l-81.782 78.546z" transform="translate(46.919 51.361)"/><path d="m51.964 219.2a7.854 7.854 0 0 1 2.243-5.5l-55.4-72.768-84.794 142.13a7.941 7.941 0 0 1 1.594 1.771l136.682-63.4a7.891 7.891 0 0 1 -.325-2.233z" transform="translate(3.032 60.076)"/><path d="m684.055 53.07a7.827 7.827 0 0 1 1.086 3.979c0 .11-.012.214-.016.323l188.641 36.021-170.059-56.118z" transform="translate(240.109 28.163)"/><path d="m32.208 220.033a7.927 7.927 0 0 1 1.135-.09 7.846 7.846 0 0 1 5.177 1.946l32.2-30.925-69.639-78.064a8.009 8.009 0 0 1 -.968.538z" transform="translate(29.54 51.445)"/><path d="m451.561 65.326a7.873 7.873 0 0 1 -1.858 2.9l78.132 106.654 108.557-68.159a7.843 7.843 0 0 1 -.666-3.165c0-.146.013-.288.021-.432z" transform="translate(167.958 36.799)"/><path d="m17.406 129.824a7.862 7.862 0 0 1 -2.17-9.394l-98.2-64.087c-.072.082-.144.162-.218.241l80.893 106.253z" transform="translate(3.896 34.033)"/><path d="m480.853 180.186a7.886 7.886 0 0 1 -1.813-.217l-38.882 97.465 67.144 31.5a7.9 7.9 0 0 1 3.662-2.965l-29.464-125.816c-.215.019-.429.033-.647.033z" transform="translate(165.019 72.095)"/><path d="m669.741 31.323 9.694 20.933a7.838 7.838 0 0 1 7.573 1.777l18.481-14.854-33.037-10.9a7.921 7.921 0 0 1 -2.711 3.044z" transform="translate(235.702 25.393)"/><path d="m602.859 109.674 91.963-47.94a7.852 7.852 0 0 1 3.119-9.164l-9.693-20.933a7.839 7.839 0 0 1 -6.893-1.216l-78.563 79.166z" transform="translate(215.09 26.053)"/><path d="m409.109 410.171-50.779-190.586a7.954 7.954 0 0 1 -.887.054 7.809 7.809 0 0 1 -1.084-.084l-26.743 91.076 78.709 99.936a7.582 7.582 0 0 1 .784-.396z" transform="translate(130.986 84.282)"/><path d="m954.972 125.908c0-.23.016-.456.034-.683l-106.93-38.751a7.932 7.932 0 0 1 -1.927 2.34l54.844 91.227 55.668-49.265a7.843 7.843 0 0 1 -1.689-4.868z" transform="translate(290.013 43.31)"/><path d="m891.829 87.458 42.452-39.227a7.851 7.851 0 0 1 -1.371-4.443 8.014 8.014 0 0 1 .044-.834l-176.839-45.814c-.038.089-.085.174-.125.262z" transform="translate(262.255 15.806)"/><path d="m903.412 37.5-42.039 38.849 90.453 59.966a7.924 7.924 0 0 1 1.767-1.743l-43.093-95.627a7.833 7.833 0 0 1 -7.086-1.44z" transform="translate(294.7 28.234)"/><path d="m672.378 35.5 34.466 11.373 60.956-48.995c-.042-.071-.089-.137-.127-.209l-95.334 34.894a7.731 7.731 0 0 1 .039 2.935z" transform="translate(236.502 15.969)"/><path d="m884.387 96.164a7.828 7.828 0 0 1 -.857-3.56c0-.109.012-.214.017-.322l-198.475-37.9a7.9 7.9 0 0 1 -2.248 3.327l80.071 124.506z" transform="translate(239.73 33.43)"/><path d="m681.432 57.888c-.139.063-.28.12-.422.175l31.647 142.8 1.767 7.971c.2-.014.391-.03.591-.03a7.855 7.855 0 0 1 5.785 2.539l40.759-28.869z" transform="translate(239.171 34.509)"/><path d="m498.984-42.983a7.9 7.9 0 0 1 -1.4-1.287l-266.57 165.636 192.086-17.921z" transform="translate(100.629 3.057)"/><path d="m803.151 258.575a7.822 7.822 0 0 1 .46 1.308l144.456-29.324a7.764 7.764 0 0 1 3.1-7.447l-37.486-62.356z" transform="translate(276.775 66.18)"/><path d="m813.884 276.433a7.854 7.854 0 0 1 2.2.316l52.953-187.237a7.886 7.886 0 0 1 -2.454-1.736l-121.577 86.112 66.243 103.006a7.854 7.854 0 0 1 2.635-.461z" transform="translate(258.874 43.711)"/><path d="m128.121 118.263 69.273 50.293 47.618-79.556a7.914 7.914 0 0 1 -2.3-3.109l-113.733 27.991c.022.243.038.489.038.739a7.852 7.852 0 0 1 -.896 3.642z" transform="translate(68.95 43.131)"/><path d="m743.627 193.2-91.483-71.212-86.589 125.092a7.884 7.884 0 0 1 1.517 2.278l175.706-51.168a7.713 7.713 0 0 1 .849-4.992z" transform="translate(203.625 54.243)"/><path d="m945.156 121.571-56.143 49.686 37.769 62.822a7.657 7.657 0 0 1 3.567-.408l17.117-111a7.856 7.856 0 0 1 -2.31-1.1z" transform="translate(303.21 54.115)"/><path d="m727.013 209.376-1.883-8.5-31.53-142.286c-.184.013-.368.027-.555.027a7.853 7.853 0 0 1 -3.482-.817l-56.788 82.039 91.555 71.273a7.873 7.873 0 0 1 2.683-1.736z" transform="translate(224.32 34.482)"/><path d="m819.224 257.4-66.085-102.757-40.706 28.831a7.818 7.818 0 0 1 .025 6.819l105.634 68.13a7.908 7.908 0 0 1 1.132-1.023z" transform="translate(248.845 64.298)"/><path d="m62.751 284.265-56.5-11.216-25.51 70.319a7.9 7.9 0 0 1 1.966 1.515l80.866-56.712a7.845 7.845 0 0 1 -.84-3.526c-.002-.129.011-.254.018-.38z" transform="translate(23.575 100.752)"/><path d="m381.362 327.038-61.5-105.195a7.859 7.859 0 0 1 -9.1-2.4l-190.662 129.269a7.879 7.879 0 0 1 .875 2.727l-.009-.129 257.473-18.716a7.87 7.87 0 0 1 2.923-5.556z" transform="translate(66.482 84.248)"/><path d="m82.8 271.054-27.273 12.8a7.752 7.752 0 0 1 -.557 4.621l71.961 43.361c.115-.152.234-.3.36-.443z" transform="translate(46.428 100.138)"/><path d="m61.43 297.781-28.144-90.947c-.058 0-.114.009-.171.009a7.856 7.856 0 0 1 -1.569-.158l-30.69 84.591 56.15 11.146a7.9 7.9 0 0 1 4.424-4.641z" transform="translate(29.769 80.32)"/><path d="m55.5 206.695a7.912 7.912 0 0 1 -2.837-2.607l-136.682 63.4a7.891 7.891 0 0 1 .326 2.23c0 .128-.013.252-.02.379l108.4 21.517z" transform="translate(3.637 79.52)"/><path d="m-87.1 307.522 85.275-142.934-81.431-106.963a7.8 7.8 0 0 1 -2.682.94l-2.91 248.47a7.751 7.751 0 0 1 1.748.487z" transform="translate(2.151 34.428)"/><path d="m2.177 112.634 69.582 78 81.72-78.486a7.821 7.821 0 0 1 -1.368-3.4h-148.198a7.859 7.859 0 0 1 -1.736 3.886z" transform="translate(30.175 50.166)"/><path d="m227.189 89.423 148.065 58.666a7.864 7.864 0 0 1 9.459-3.64l38.3-73.9-195.713 18.251c-.027.212-.064.419-.111.623z" transform="translate(99.451 38.406)"/><path d="m126.6 271.874a7.9 7.9 0 0 1 2.353 3.266l4.061-.909 174.029-38.931a7.848 7.848 0 0 1 1.161-4.023l-109.654-79.607z" transform="translate(68.482 63.382)"/><path d="m123.662 114.351v168.018a7.846 7.846 0 0 1 1.852.5l72.056-120.378-69.439-50.413a7.858 7.858 0 0 1 -4.469 2.273z" transform="translate(67.578 51.193)"/><path d="m292.477 248.737a7.833 7.833 0 0 1 1.617-1.112l-59.181-158.025a7.963 7.963 0 0 1 -1.649.175 7.857 7.857 0 0 1 -3.012-.6l-47.724 79.731z" transform="translate(85.701 44.143)"/><path d="m28.635 206.1a7.858 7.858 0 0 1 -1.22.519l28.093 90.785c.245-.022.49-.037.74-.037a7.883 7.883 0 0 1 7 4.27l26.619-12.49z" transform="translate(37.946 80.14)"/><path d="m696.752 57.052a7.775 7.775 0 0 1 -.986-1.117l-91.966 47.936a7.821 7.821 0 0 1 -.583 6.452l36.822 28.663z" transform="translate(215.221 33.908)"/><path d="m519.634 289.85a7.891 7.891 0 0 1 .334-2.264l-67.021-31.445-57.126 143.194a7.917 7.917 0 0 1 1.2.857l123.83-106.15a7.84 7.84 0 0 1 -1.217-4.192z" transform="translate(151.369 95.546)"/><path d="m580.3 235.37a7.877 7.877 0 0 1 .539-2.851l-103.9-54.848a7.9 7.9 0 0 1 -3.444 2.664l29.464 125.82c.214-.018.429-.033.649-.033a7.845 7.845 0 0 1 4.92 1.729l73.159-68.019a7.852 7.852 0 0 1 -1.387-4.462z" transform="translate(175.282 71.387)"/><path d="m356.726 216.924a7.913 7.913 0 0 1 -3.441 2.876l50.778 190.585a7.979 7.979 0 0 1 .888-.052 7.884 7.884 0 0 1 1.811.217l57.176-143.322z" transform="translate(138.273 83.472)"/><path d="m613.851 98.917a7.847 7.847 0 0 1 -5.438 2.184 8.073 8.073 0 0 1 -1.028-.073l-43.343 151.639c.051.026.1.058.148.085l86.588-125.09z" transform="translate(203.16 47.141)"/><path d="m310.662 217.378-134.456 30.076-43.446 9.719c.013.19.029.378.029.57a7.882 7.882 0 0 1 -7.637 7.875l-9.282 79.729a7.867 7.867 0 0 1 4.138 2.145l190.892-129.427c-.089-.224-.17-.453-.238-.687z" transform="translate(65.179 83.612)"/><path d="m143.853 263.989a7.895 7.895 0 0 1 .025-4.622l-113.416-54.923a7.917 7.917 0 0 1 -.687.791l61.512 83.419z" transform="translate(38.672 79.63)"/><path d="m403.072 384.214-73.2-92.935-3.71 12.637a7.877 7.877 0 0 1 3.189 11.622z" transform="translate(129.924 106.364)"/></g><path d="m1260.761 169.218a7.874 7.874 0 0 0 -10.4-7.471l-43.045-95.522a7.885 7.885 0 1 0 -11.524-9.711l-176.843-45.814a8 8 0 0 0 .044-.834 7.888 7.888 0 0 0 -15.776 0 8.005 8.005 0 0 0 .161 1.594l-95.335 34.895a7.885 7.885 0 1 0 -13.243 8.485l-78.563 79.166a7.87 7.87 0 0 0 -9.69.268l-195.747-176.228a7.843 7.843 0 0 0 1.316-4.358 7.888 7.888 0 0 0 -7.888-7.888 7.887 7.887 0 0 0 -7.888 7.888 7.868 7.868 0 0 0 .65 3.132l-270.253 167.921a7.883 7.883 0 0 0 -15.659 1.293c0 .25.014.494.037.738l-113.738 27.99a7.881 7.881 0 0 0 -15.09 1.83h-148.199a7.873 7.873 0 0 0 -13.687-4.07l-98.219-64.1a7.861 7.861 0 0 0 .685-3.208 7.888 7.888 0 0 0 -7.888-7.888 7.888 7.888 0 0 0 -7.888 7.888 7.882 7.882 0 0 0 6.8 7.8l-2.91 248.42a7.881 7.881 0 0 0 -6.819 7.807 7.888 7.888 0 0 0 7.888 7.888 7.839 7.839 0 0 0 4.239-1.244l78.282 90.05a7.845 7.845 0 0 0 -1.9 5.123 7.888 7.888 0 0 0 15.776 0 7.851 7.851 0 0 0 -.84-3.527l80.87-56.711a7.867 7.867 0 0 0 11.665-.255l72.1 43.445a7.884 7.884 0 1 0 15.289 2.7l.084 1.156 257.471-18.716a7.878 7.878 0 0 0 12.614 4.45l79.031 73.627a7.891 7.891 0 1 0 13.17.276l123.824-106.153a7.883 7.883 0 0 0 11.666-10.416l73.159-68.019a7.868 7.868 0 0 0 12.75-7.074l175.8-51.194a7.868 7.868 0 0 0 12.914 1.864l105.631 68.134a7.881 7.881 0 1 0 14.986 3.735l144.882-29.41a7.884 7.884 0 1 0 10.3-10.573l17.163-111.3a7.885 7.885 0 0 0 7.785-7.879zm-807.98 240.327a7.872 7.872 0 0 0 -2.935.57l-56.975-97.452 65.169 82.744-4.176 14.222a7.769 7.769 0 0 0 -1.083-.084zm-277.3 20.477-44.121-59.835 52.148-24.469a7.886 7.886 0 0 0 4.516 3.245l-9.3 79.923a7.83 7.83 0 0 0 -3.24 1.136zm-174.918 13.15a7.839 7.839 0 0 0 -4.239 1.244l-78.282-90.05a7.9 7.9 0 0 0 1.43-2.468l108.052 21.446-25.39 69.985a7.967 7.967 0 0 0 -1.571-.157zm1005.195-427.52a7.854 7.854 0 0 0 10.143.468l108.84 105.326a7.974 7.974 0 0 0 -.632 1.044l-178.139-58.784zm71.329 305.789 53.055-187.59a7.981 7.981 0 0 0 1.006.071 7.85 7.85 0 0 0 3.026-.6l55.068 91.6-110.6 97.879a7.919 7.919 0 0 0 -1.555-1.36zm60.578-199.849 16.654-15.39 89.821 59.548-105.261-38.15a7.952 7.952 0 0 0 .157-1.569 7.843 7.843 0 0 0 -1.371-4.438zm-1.576-1.7a7.857 7.857 0 0 0 -9.734-.11l-105.388-101.982 131.363 87.087zm-22.214 1.665-188.642-36.022c0-.109.016-.213.016-.323a7.827 7.827 0 0 0 -1.086-3.979l19.652-15.8zm-191.166-42.131a7.838 7.838 0 0 0 -7.573-1.777l-9.694-20.933a7.922 7.922 0 0 0 2.711-3.046l33.037 10.9zm-21.6-21.413a7.91 7.91 0 0 0 2.226-.323l9.693 20.933a7.852 7.852 0 0 0 -3.119 9.164l-91.963 47.94-.065-.088 78.563-79.166a7.836 7.836 0 0 0 4.67 1.54zm-228.789 323.02-67.144-31.5 38.882-97.465a7.886 7.886 0 0 0 1.813.217c.218 0 .433-.014.647-.033l29.464 125.82a7.9 7.9 0 0 0 -3.662 2.961zm-755.276-37.9 84.796-142.127 55.4 72.768a7.851 7.851 0 0 0 -1.917 7.732l-136.682 63.4a7.941 7.941 0 0 0 -1.596-1.768zm3.89-252.763 98.2 64.087a7.862 7.862 0 0 0 2.17 9.394l-19.697 33.019-80.891-106.254c.075-.079.147-.158.219-.241zm179.326 152.039-32.2 30.925a7.74 7.74 0 0 0 -6.312-1.856l-32.1-106.6a8.009 8.009 0 0 0 .968-.538zm85-78.423a7.821 7.821 0 0 0 3.658 1.558v168.017a7.836 7.836 0 0 0 -3.166 1.2l-82.274-92.231zm619.09-20.465-108.557 68.158-78.133-106.65a7.872 7.872 0 0 0 1.858-2.9l184.187 37.8c-.008.144-.021.285-.021.432a7.844 7.844 0 0 0 .666 3.16zm-413.31 153.293a7.854 7.854 0 0 0 -1.818-3.357l46.457-50.921 47.983 47.223a7.871 7.871 0 0 0 -3.079 5.459zm221.077-189.5c.216 0 .428-.016.638-.033l29.66 127.383.558 2.4a7.9 7.9 0 0 0 -4.147 3.8l-93.126-30.571 63.339-103.609a7.839 7.839 0 0 0 3.077.625zm25.983 135.75a7.8 7.8 0 0 0 -.122 1.329 7.918 7.918 0 0 0 .129 1.385l-142.19 47.8a7.865 7.865 0 0 0 -.462-1.109l48.994-80.144zm-144.115 47.373a7.9 7.9 0 0 0 -1.662-1.258l-5.341-55.188-3.487-36.029a7.894 7.894 0 0 0 5.088-3.973l53.608 17.595zm-16.685-93.521a7.849 7.849 0 0 0 3.884 1.262l3.527 36.445 5.195 53.665a7.984 7.984 0 0 0 -1.478-.143 7.841 7.841 0 0 0 -2.634.46l-48.551-47.785zm168.571 39.589c-.216 0-.428.016-.638.033l-30.218-129.786a7.693 7.693 0 0 0 .776-.353l78.033 106.516-41.966 26.351a7.868 7.868 0 0 0 -5.987-2.761zm-38.812-131.033-63.626 104.078-54.084-17.75a7.964 7.964 0 0 0 .145-1.487 7.844 7.844 0 0 0 -.772-3.385l117.666-82.094a7.948 7.948 0 0 0 .671.638zm-131.5 89.906-39.969 43.815-110.258-108.517a7.853 7.853 0 0 0 .453-.692l148.108 58.684a7.87 7.87 0 0 0 1.671 6.709zm-41.538 45.53-46.601 51.084a7.769 7.769 0 0 0 -5.428-.972l-59.206-158.087a7.967 7.967 0 0 0 .919-.606zm-407.727-75.269a7.91 7.91 0 0 0 1.134-.092l24.277 80.757 7.775 25.863c-.133.064-.269.126-.4.2l-55.959-73.509 20.173-33.814a7.839 7.839 0 0 0 3 .595zm157.727 170.666c-.156.188-.3.385-.443.586l-113.173-55.235a7.914 7.914 0 0 0 .366-2.38 7.826 7.826 0 0 0 -1.2-4.175l32.229-30.962zm207.255-37.176 89.412-1.593a7.892 7.892 0 0 0 4.432 5.65l-26.279 89.493-69.7-88.5a7.846 7.846 0 0 0 2.135-5.05zm96.069 4.708a7.809 7.809 0 0 0 1.084.084 7.955 7.955 0 0 0 .887-.054l50.778 190.586a7.582 7.582 0 0 0 -.783.4l-78.711-99.939zm8.964-7.941 142.541-47.919a7.909 7.909 0 0 0 3.05 3.223l-38.832 97.339-107.084-50.239a7.877 7.877 0 0 0 .333-2.263c0-.05-.006-.095-.008-.137zm156.783-54.668 42.1-26.437 63.053 86.065a7.946 7.946 0 0 0 -.977 1.035l-103.963-54.883a7.822 7.822 0 0 0 -.213-5.779zm110.379 57.641a7.845 7.845 0 0 0 -3.277.719l-63.028-86.033 108.418-68.075a7.9 7.9 0 0 0 2.731 2.052l-43.3 151.49a7.978 7.978 0 0 0 -1.544-.153zm40.7-161.217-184.188-37.8c.008-.144.022-.286.022-.432a7.885 7.885 0 0 0 -7.151-7.85l-7.046-130.154a7.845 7.845 0 0 0 3.442-1.647l195.75 176.231a7.9 7.9 0 0 0 -.83 1.652zm-200.679-176.114 7.044 130.156a7.884 7.884 0 0 0 -6.286 7.3l-77.775 7.256 75.2-145.1a7.7 7.7 0 0 0 1.817.388zm.97 139.762a7.811 7.811 0 0 0 .6 1.631l-117.636 82.069a7.878 7.878 0 0 0 -1.206-1.078l38.986-75.229zm-120.3 81.555a7.864 7.864 0 0 0 -9.459 3.64l-148.063-58.666c.047-.2.084-.411.115-.621l195.708-18.257zm-165.2-48.933a7.963 7.963 0 0 0 1.649-.175l59.181 158.021a7.833 7.833 0 0 0 -1.617 1.112l-109.95-79.826 47.724-79.731a7.857 7.857 0 0 0 3.015.599zm57.722 160.739a7.848 7.848 0 0 0 -1.161 4.023l-174.03 38.929-4.061.909a7.9 7.9 0 0 0 -2.353-3.266l71.951-120.2zm-183.594 39.4a7.846 7.846 0 0 0 -1.852-.5v-168.017a7.858 7.858 0 0 0 4.469-2.273l69.439 50.413zm-9.438-171.751-81.718 78.49-69.582-78a7.859 7.859 0 0 0 1.736-3.89h148.2a7.821 7.821 0 0 0 1.366 3.405zm-264.752-70.257 81.427 106.963-85.274 142.934a7.751 7.751 0 0 0 -1.75-.487l2.91-248.47a7.8 7.8 0 0 0 2.687-.94zm1.025 257.569c.007-.127.02-.251.02-.379a7.891 7.891 0 0 0 -.326-2.23l136.681-63.405a7.912 7.912 0 0 0 2.837 2.607l-30.81 84.924zm141.389-62.622a7.856 7.856 0 0 0 1.569.158c.058 0 .114-.008.171-.009l28.146 90.951a7.9 7.9 0 0 0 -4.425 4.64l-56.15-11.14zm32.88 90.5c-.25 0-.5.014-.74.037l-28.093-90.777a7.858 7.858 0 0 0 1.22-.519l61.237 83.047-26.618 12.491a7.883 7.883 0 0 0 -7.006-4.27zm-25.747-92.635a7.917 7.917 0 0 0 .687-.791l113.416 54.926a7.895 7.895 0 0 0 -.025 4.622l-52.566 24.665zm116.74 146.235a7.867 7.867 0 0 0 -4.138-2.145l9.282-79.729a7.882 7.882 0 0 0 7.637-7.875c0-.192-.016-.381-.029-.57l43.446-9.719 134.456-30.072c.068.234.149.463.238.687zm270.9-20.824 3.71-12.637 73.203 92.939-73.722-68.678a7.877 7.877 0 0 0 -3.189-11.622zm87.137 83.524a7.979 7.979 0 0 0 -.888.052l-50.778-190.58a7.913 7.913 0 0 0 3.442-2.872l107.213 50.3-57.178 143.322a7.884 7.884 0 0 0 -1.811-.222zm3.966 1.076 57.125-143.194 67.021 31.445a7.842 7.842 0 0 0 .881 6.456l-123.83 106.15a7.917 7.917 0 0 0 -1.197-.852zm131.7-117.373c-.22 0-.434.014-.649.033l-29.464-125.82a7.9 7.9 0 0 0 3.444-2.664l103.9 54.848a7.855 7.855 0 0 0 .846 7.314l-73.157 68.024a7.845 7.845 0 0 0 -4.92-1.729zm88.459-77.616c-.05-.027-.1-.059-.148-.085l43.343-151.639a8.073 8.073 0 0 0 1.028.073 7.847 7.847 0 0 0 5.438-2.184l36.927 28.748zm51.088-155.662a7.821 7.821 0 0 0 .583-6.452l91.966-47.936a7.775 7.775 0 0 0 .986 1.117l-56.713 81.934zm95.443-51.943a7.853 7.853 0 0 0 3.482.817c.187 0 .37-.014.555-.027l31.533 142.286 1.883 8.5a7.873 7.873 0 0 0 -2.686 1.736l-91.555-71.273zm40.306 151.036c-.2 0-.395.016-.591.03l-1.767-7.971-31.647-142.8c.143-.055.284-.112.422-.175l80.126 124.591-40.759 28.869a7.855 7.855 0 0 0 -5.784-2.544zm-31.632-152.178a7.9 7.9 0 0 0 2.248-3.327l198.475 37.9c-.005.107-.017.213-.017.322a7.828 7.828 0 0 0 .857 3.56l-121.492 86.052zm202.9 40.347a7.886 7.886 0 0 0 2.454 1.736l-52.954 187.237a7.774 7.774 0 0 0 -4.831.144l-66.243-103.004zm99.3 164.13a7.91 7.91 0 0 0 .089 1.121l-144.456 29.324a7.822 7.822 0 0 0 -.46-1.308l110.531-97.819 37.486 62.356a7.869 7.869 0 0 0 -3.19 6.326zm-88.592-163.494a7.932 7.932 0 0 0 1.927-2.34l106.93 38.751c-.018.226-.034.453-.034.683a7.843 7.843 0 0 0 1.69 4.868l-55.668 49.265zm112.131 30.681a7.924 7.924 0 0 0 -1.767 1.743l-90.453-59.966 42.039-38.844a7.833 7.833 0 0 0 7.086 1.44zm-53.083-104.044a8.014 8.014 0 0 0 -.044.834 7.851 7.851 0 0 0 1.371 4.443l-42.452 39.227-135.84-90.056c.041-.088.088-.173.126-.262zm-191.032-45.122c.038.072.085.139.127.209l-60.959 48.993-34.466-11.373a7.731 7.731 0 0 0 -.039-2.935zm-405.96-54.851a7.9 7.9 0 0 0 1.4 1.287l-75.888 146.426-192.087 17.923zm-286.551 170.237a7.914 7.914 0 0 0 2.3 3.109l-47.618 79.554-69.273-50.293a7.852 7.852 0 0 0 .9-3.642c0-.25-.016-.5-.038-.739zm-305.387 316.61a7.9 7.9 0 0 0 -1.966-1.515l25.51-70.319 56.5 11.216c-.007.126-.02.251-.02.379a7.845 7.845 0 0 0 .84 3.526zm95.113-57.025a7.752 7.752 0 0 0 .557-4.621l27.273-12.8 44.49 60.336c-.126.144-.245.292-.36.443zm86.057 46.947.009.129a7.879 7.879 0 0 0 -.875-2.727l190.66-129.268a7.859 7.859 0 0 0 9.1 2.4l61.5 105.195a7.87 7.87 0 0 0 -2.92 5.556zm583.25-131.956a7.884 7.884 0 0 0 -1.517-2.278l86.587-125.093 91.483 71.212a7.713 7.713 0 0 0 -.849 4.992zm190.6-49.009a7.818 7.818 0 0 0 -.025-6.819l40.706-28.831 66.088 102.759a7.908 7.908 0 0 0 -1.131 1.021zm271.338 33.139a7.838 7.838 0 0 0 -2.65.466l-37.769-62.822 56.143-49.686a7.856 7.856 0 0 0 2.31 1.1l-17.117 111a7.837 7.837 0 0 0 -.913-.058z"/></g></svg>